<?xml version="1.0" standalone="no"?>
<!DOCTYPE svg PUBLIC "-//W3C//DTD SVG 20010904//EN"
 "http://www.w3.org/TR/2001/REC-SVG-20010904/DTD/svg10.dtd">
<svg version="1.0" xmlns="http://www.w3.org/2000/svg"
 width="375.000000pt" height="452.000000pt" viewBox="0 0 375.000000 452.000000"
 preserveAspectRatio="xMidYMid meet">
<metadata>
Created by potrace 1.16, written by Peter Selinger 2001-2019
</metadata>
<g transform="translate(0.000000,452.000000) scale(0.100000,-0.100000)"
fill="#000000" stroke="none">
<path d="M1340 4365 c-8 -2 -48 -9 -88 -15 -40 -7 -72 -13 -70 -15 6 -6 630
-77 634 -72 3 2 -78 28 -178 56 -168 47 -237 58 -298 46z"/>
<path d="M895 4285 c6 -2 147 -32 315 -66 168 -34 309 -66 314 -70 4 -4 -20
-6 -55 -4 -95 6 -65 0 286 -56 233 -37 357 -52 455 -55 l135 -4 -495 100
c-272 55 -578 111 -680 125 -205 27 -290 37 -275 30z"/>
<path d="M2520 3724 c8 -2 134 -20 279 -40 244 -33 275 -39 407 -85 131 -46
148 -50 220 -47 l79 3 -195 44 c-107 24 -220 54 -250 67 -45 19 -97 26 -295
44 -228 19 -279 22 -245 14z"/>
<path d="M1520 3514 c8 -2 182 -31 385 -63 l370 -59 305 -6 c168 -4 357 -9
420 -13 l115 -7 -85 -7 c-110 -9 -310 -28 -378 -35 -30 -3 -52 -8 -49 -10 2
-2 116 -9 253 -15 311 -13 520 -25 474 -28 -19 -1 -41 -5 -48 -10 -8 -4 60
-10 155 -14 158 -5 248 -21 248 -42 0 -4 -81 -30 -180 -56 l-180 -49 -306 15
c-339 17 -512 19 -489 6 8 -4 170 -13 360 -20 190 -6 372 -14 405 -18 l60 -6
-45 -16 c-42 -15 -43 -16 -17 -19 15 -2 119 4 231 12 111 9 208 16 214 16 9 0
12 34 12 115 0 111 -1 115 -22 120 -13 2 -205 40 -428 85 l-405 80 -680 25
c-375 14 -687 24 -695 24 -13 -1 -13 -2 0 -5z"/>
<path d="M1429 3055 c-2 -60 -2 -133 -1 -162 l3 -52 -61 -41 c-33 -22 -61 -46
-61 -53 -5 -42 5 -153 15 -159 8 -5 7 -11 -2 -20 -8 -8 -12 -54 -12 -155 0
-86 -4 -143 -10 -143 -5 0 -7 7 -4 15 4 8 1 15 -4 15 -7 0 -11 66 -12 187 0
135 -4 189 -13 195 -6 4 -15 4 -19 0 -4 -4 -10 -89 -14 -190 l-7 -183 -23 5
c-30 8 -140 18 -181 17 -19 0 -33 5 -33 11 0 8 -3 9 -10 2 -5 -5 -27 -8 -49
-6 -35 4 -40 7 -45 37 -7 34 -7 34 -69 37 l-62 3 -3 73 c-2 50 1 79 10 90 12
14 8 15 -35 9 -27 -4 -53 -9 -58 -13 -5 -3 -9 -41 -9 -85 0 -64 -3 -79 -15
-79 -11 0 -15 -12 -15 -50 0 -37 -4 -50 -14 -50 -8 0 -14 8 -14 18 0 9 -3 93
-7 185 -7 144 -15 191 -30 176 -3 -4 -20 -206 -35 -427 -7 -97 -13 -137 -25
-148 -20 -21 -19 -30 7 -48 12 -9 18 -16 12 -16 -12 0 -54 42 -54 54 0 4 3 5
7 3 5 -3 8 36 8 86 1 51 5 153 10 227 5 74 10 167 10 205 0 39 5 73 10 77 6 5
5 8 -3 8 -7 0 -20 -7 -29 -15 -8 -8 -19 -13 -24 -9 -6 3 -16 0 -24 -6 -12 -10
-15 -10 -15 1 0 11 -2 11 -10 -1 -9 -13 -10 -13 -10 0 0 12 -2 12 -9 2 -9 -15
-20 -15 -39 0 -7 6 -15 8 -18 5 -3 -3 -2 -126 3 -274 5 -147 5 -279 1 -292 -5
-12 -18 -31 -30 -40 -21 -18 -21 -18 28 -30 27 -7 59 -19 72 -27 12 -8 26 -13
30 -10 4 2 12 -5 18 -17 9 -21 8 -22 -43 -19 -51 4 -53 3 -53 -22 l0 -26 -90
0 -90 0 0 55 c0 30 5 55 10 55 14 0 12 53 -2 69 -11 11 -10 12 1 6 12 -7 13
23 7 204 l-6 213 41 -3 42 -3 -2 84 c-3 102 -11 121 -11 26 0 -59 -2 -67 -18
-64 -14 3 -18 17 -22 73 -5 59 -6 64 -10 30 -5 -39 -7 -41 -65 -61 -59 -21
-60 -22 -63 -63 -3 -33 -7 -41 -23 -41 -11 0 -22 -6 -24 -12 -2 -7 -6 -127 -7
-266 -2 -166 -7 -255 -14 -260 -8 -5 -11 -266 -10 -872 l1 -865 35 -64 c23
-44 50 -75 85 -101 95 -70 -49 -65 1755 -65 l1635 0 64 34 c64 35 116 91 149
161 15 32 17 127 20 1033 2 862 0 1000 -12 1012 -19 19 -26 19 -26 0 0 -8 -11
-17 -25 -21 -20 -5 -25 -13 -25 -36 0 -19 -4 -28 -12 -25 -10 3 -12 53 -9 215
1 117 1 212 -2 212 -26 0 -62 -327 -58 -522 2 -82 0 -88 -19 -88 -12 0 -20 -7
-20 -17 -1 -17 -1 -17 -14 0 -7 9 -21 17 -30 17 -13 0 -16 11 -16 59 0 85 20
308 39 444 l17 117 -137 0 -137 0 -7 -172 c-15 -347 -22 -369 -24 -73 0 154
-4 317 -8 362 l-6 82 -46 -6 c-25 -3 -56 -13 -68 -22 -22 -16 -22 -21 -23
-203 l0 -188 40 -6 c22 -4 40 -12 40 -18 0 -8 -41 -8 -157 1 -87 7 -201 11
-253 8 -52 -2 -212 -7 -355 -11 -143 -4 -260 -7 -261 -8 0 0 6 -98 13 -216 13
-207 10 -423 -6 -449 -5 -7 -24 -14 -44 -15 -55 -5 -61 17 -53 174 3 72 13
208 21 302 14 163 13 214 -4 203 -5 -2 -120 -7 -257 -10 -137 -3 -295 -11
-352 -19 -57 -7 -105 -9 -108 -4 -8 13 8 16 181 37 354 45 519 55 900 55 204
1 413 -2 466 -7 l96 -7 -5 312 c-2 172 -5 314 -6 315 -1 1 -26 -1 -56 -6 -91
-15 -90 -10 -90 -318 l0 -266 -37 7 c-21 3 -57 6 -80 6 l-42 0 -4 123 -3 122
-2 -122 -2 -123 -35 0 -34 0 -3 123 c-3 119 -3 122 -25 121 -13 0 -23 4 -23 9
0 5 -6 4 -14 -2 -11 -9 -15 -9 -19 1 -4 8 -6 9 -6 1 -1 -6 -10 -9 -23 -6 -19
4 -20 3 -8 -7 12 -9 10 -10 -10 -5 -14 4 -29 8 -35 9 -6 0 -11 -45 -13 -115
-2 -111 -4 -117 -25 -123 -40 -11 -75 -6 -81 10 -5 14 -21 15 -114 10 -59 -4
-133 -9 -164 -12 l-57 -6 -3 119 c-3 105 -5 118 -20 117 -10 -1 -18 2 -18 7 0
5 -5 9 -11 9 -5 0 -7 -4 -4 -10 3 -5 2 -10 -3 -10 -21 0 -31 30 -34 100 -2 43
-7 -13 -11 -130 -5 -113 -10 -206 -11 -207 -1 -1 -35 -7 -76 -14 -41 -6 -80
-15 -86 -20 -8 -6 -140 -39 -158 -39 -4 0 -20 299 -18 315 1 6 -10 11 -25 10
-25 0 -28 4 -35 46 -4 25 -12 131 -16 235 -9 181 -9 184 -13 79z m1224 -813
c4 -53 7 -203 7 -333 l0 -237 -27 -5 c-16 -3 -30 -3 -33 0 -7 7 -6 646 2 665
4 10 14 15 26 11 17 -4 20 -17 25 -101z m-1060 -9 c23 -314 19 -563 -8 -563
-14 0 -21 57 -31 263 -4 75 -10 137 -13 137 -3 0 -15 -7 -25 -15 -11 -8 -29
-15 -40 -14 -15 1 -12 3 10 10 32 9 72 45 61 55 -3 4 -27 -6 -53 -21 -37 -22
-48 -25 -55 -14 -5 8 -9 20 -9 27 0 6 -7 12 -15 12 -8 0 -15 6 -15 14 0 30
-19 25 -40 -12 -16 -25 -24 -32 -28 -22 -3 7 -1 15 5 17 5 2 8 18 7 36 l-3 32
8 -30 8 -30 7 27 c5 18 13 25 22 21 12 -5 14 5 8 61 l-7 66 27 0 c26 0 26 0
28 -82 0 -46 1 -90 0 -98 -5 -55 35 -43 55 17 9 28 12 31 9 10 -3 -21 0 -27
11 -23 8 3 17 6 19 6 2 0 4 45 4 100 0 98 0 100 24 100 22 0 23 -4 29 -87z
m-363 -53 c0 -33 -4 -60 -9 -60 -16 0 -23 -40 -10 -56 10 -12 14 -12 20 -2 6
8 9 -4 9 -30 0 -25 -4 -41 -10 -37 -5 3 -7 12 -4 19 3 8 -10 34 -28 59 -30 41
-36 44 -68 39 -19 -3 -37 -8 -40 -11 -3 -3 -31 -7 -62 -8 -51 -2 -58 0 -58 17
0 30 78 89 140 106 30 9 60 17 65 19 6 2 20 4 33 4 20 1 22 -3 22 -59z m-219
-114 c-9 -11 -3 -15 30 -20 23 -4 55 -14 73 -23 17 -10 34 -16 39 -15 4 1 7
-4 7 -11 0 -7 10 -18 22 -26 21 -13 21 -17 15 -180 -7 -169 -10 -202 -18 -201
-2 1 -17 -4 -34 -11 -16 -6 -58 -12 -92 -13 l-61 -1 -6 140 c-4 77 -9 187 -12
245 -6 103 -5 105 18 116 32 16 32 16 19 0z m441 -163 c1 -76 2 -158 2 -183 1
-38 -2 -45 -20 -48 -20 -3 -21 3 -30 177 -8 157 -7 181 6 185 40 10 40 10 42
-131z m2030 -32 c8 -7 27 -130 28 -177 l0 -30 -86 -1 c-71 0 -84 2 -79 14 3 9
13 59 21 113 l17 97 46 -5 c25 -2 49 -7 53 -11z m-226 -123 c30 -73 27 -89
-18 -85 -18 2 -50 0 -70 -4 -58 -10 -67 3 -59 85 l6 68 45 18 c43 17 45 17 58
-2 8 -10 25 -46 38 -80z"/>
</g>
</svg>
