<svg width="23" height="23" viewBox="0 0 23 23" fill="none" xmlns="http://www.w3.org/2000/svg">
<path fill-rule="evenodd" clip-rule="evenodd" d="M0.318616 5.8962C0.42097 5.70136 0.579094 5.55391 0.763451 5.46369L10.7565 0.467192C11.038 0.326427 11.3694 0.326427 11.6509 0.467192L21.6433 5.46337C21.828 5.55356 21.9863 5.70113 22.0888 5.8962C22.0968 5.91138 22.1044 5.92676 22.1116 5.94235C22.1773 6.08439 22.2068 6.23441 22.2037 6.38171V16.3616C22.2037 16.7404 21.9897 17.0867 21.6509 17.2561L11.6684 22.2473C11.5375 22.3161 11.3895 22.3568 11.2324 22.3612C11.2229 22.3615 11.2133 22.3616 11.2037 22.3616C11.1855 22.3616 11.1672 22.3611 11.149 22.3601C11.0016 22.3522 10.8626 22.3123 10.739 22.2473L0.756495 17.2561C0.41771 17.0867 0.20371 16.7404 0.20371 16.3616V6.38173C0.200622 6.23442 0.230142 6.08439 0.295837 5.94235C0.303037 5.92676 0.310633 5.91138 0.318616 5.8962ZM16.2039 4.97976L18.9676 6.36162L11.2037 10.2436L8.44 8.86173L16.2039 4.97976ZM13.9679 3.86172L11.2037 2.47964L3.43979 6.36163L6.2039 7.74368L13.9679 3.86172ZM5.73526 9.74543L2.20371 7.97965V15.7436L10.2037 19.7436V11.9797L5.77647 9.76603C5.76259 9.75949 5.74885 9.75262 5.73526 9.74543ZM12.2037 19.7436V11.9797L20.2037 7.97965V15.7436L12.2037 19.7436Z" fill="#EA5B21"/>
</svg>
