<svg width="22" height="20" viewBox="0 0 22 20" fill="none" xmlns="http://www.w3.org/2000/svg">
<path fill-rule="evenodd" clip-rule="evenodd" d="M10.3753 0.219131C10.7405 -0.0730437 11.2595 -0.0730437 11.6247 0.219131L19.1245 6.21897C19.1245 6.21902 19.1244 6.21891 19.1245 6.21897L21.6247 8.21913C22.0559 8.56414 22.1259 9.19343 21.7808 9.62469C21.4358 10.056 20.8065 10.1259 20.3753 9.78087L19.5 9.08062V19C19.5 19.5523 19.0523 20 18.5 20H3.49998C2.94769 20 2.49998 19.5523 2.49998 19V9.08062L1.62467 9.78087C1.19341 10.1259 0.564116 10.056 0.219107 9.62469C-0.125903 9.19343 -0.0559812 8.56414 0.375281 8.21913L2.87528 6.21913C2.87538 6.21905 2.87518 6.21921 2.87528 6.21913L10.3753 0.219131ZM4.49998 7.48062L11 2.28062L17.5 7.48062V18H14.5V12.5C14.5 11.9477 14.0523 11.5 13.5 11.5H8.49998C7.94769 11.5 7.49998 11.9477 7.49998 12.5V18H4.49998V7.48062ZM9.49998 18H12.5V13.5H9.49998V18Z" fill="#EA5B21"/>
</svg>
