<svg width="20" height="20" viewBox="0 0 20 20" fill="none" xmlns="http://www.w3.org/2000/svg">
<path d="M19 12C19.5128 12 19.9355 12.386 19.9933 12.8834L20 13V19C20 19.5128 19.614 19.9355 19.1166 19.9933L19 20H13C12.4477 20 12 19.5523 12 19C12 18.4872 12.386 18.0645 12.8834 18.0067L13 18H18V13C18 12.4872 18.386 12.0645 18.8834 12.0067L19 12ZM8.20711 11.7929C8.56759 12.1534 8.59532 12.7206 8.2903 13.1129L8.20711 13.2071L3.414 18H7C7.51284 18 7.93551 18.386 7.99327 18.8834L8 19C8 19.5128 7.61396 19.9355 7.11662 19.9933L7 20H1L0.967745 19.9995C0.949734 19.9989 0.931735 19.9978 0.913769 19.9963L1 20C0.94938 20 0.899638 19.9962 0.851039 19.989C0.834051 19.9864 0.816625 19.9833 0.799274 19.9798C0.777254 19.9754 0.755564 19.9702 0.73416 19.9643C0.718537 19.9599 0.703149 19.9553 0.687857 19.9503C0.668202 19.9439 0.648421 19.9367 0.628942 19.9289C0.611204 19.9218 0.593901 19.9143 0.576778 19.9063C0.556109 19.8966 0.535706 19.8862 0.515723 19.8751C0.503605 19.8685 0.491387 19.8614 0.479291 19.854C0.453725 19.8383 0.428869 19.8215 0.404841 19.8037C0.397397 19.7982 0.390158 19.7927 0.382978 19.7871C0.319818 19.7374 0.262552 19.6802 0.212786 19.6168L0.292893 19.7071C0.257499 19.6717 0.225313 19.6343 0.196335 19.5953C0.17849 19.5711 0.161719 19.5463 0.146067 19.5207C0.138607 19.5086 0.131499 19.4964 0.124671 19.4841C0.113794 19.4643 0.103377 19.4439 0.0936537 19.4231C0.0856789 19.4061 0.0781963 19.3888 0.0712254 19.3713C0.0633157 19.3516 0.0561225 19.3318 0.0495467 19.3117C0.0447288 19.2969 0.0400976 19.2815 0.035845 19.266C0.0298335 19.2444 0.0246399 19.2227 0.0201652 19.2008C0.0167022 19.1834 0.0136281 19.1659 0.0110178 19.1485C0.00941754 19.1382 0.00798603 19.1275 0.0067277 19.1166L0.00396633 19.0893C0.0018949 19.066 0.000634945 19.0427 0.000186205 19.0194L0 19V13C0 12.4477 0.447715 12 1 12C1.51284 12 1.93551 12.386 1.99327 12.8834L2 13V16.584L6.79289 11.7929C7.18342 11.4024 7.81658 11.4024 8.20711 11.7929ZM19 0L19.0194 0.000186205C19.0427 0.000634945 19.066 0.0018949 19.0893 0.00396633L19 0C19.0506 0 19.1004 0.00376108 19.149 0.0110192C19.166 0.013628 19.1834 0.0167022 19.2007 0.0202401C19.2227 0.0246398 19.2444 0.0298337 19.2658 0.0357211C19.2815 0.0400978 19.2969 0.0447288 19.3121 0.0497382C19.3318 0.0561226 19.3516 0.0633158 19.3711 0.071104C19.3888 0.0781965 19.4061 0.0856792 19.4232 0.0936735C19.4439 0.103377 19.4643 0.113794 19.4843 0.124876C19.4964 0.131499 19.5086 0.138607 19.5207 0.145995C19.5463 0.161719 19.5711 0.17849 19.5952 0.196314C19.6026 0.201754 19.6098 0.207284 19.617 0.212928C19.6802 0.262552 19.7374 0.319818 19.7872 0.38325L19.7071 0.292893C19.7425 0.328287 19.7747 0.365674 19.8037 0.404693C19.8215 0.428869 19.8383 0.453725 19.8539 0.47934C19.8614 0.491387 19.8685 0.503605 19.8753 0.515938C19.8862 0.535706 19.8966 0.556109 19.9063 0.576901C19.9143 0.593902 19.9218 0.611204 19.9288 0.628664C19.9367 0.648421 19.9439 0.668202 19.9505 0.688264C19.9553 0.703149 19.9599 0.718537 19.9642 0.734007C19.9702 0.755564 19.9754 0.777254 19.9798 0.799206C19.9833 0.816625 19.9864 0.834051 19.989 0.851533C19.9906 0.861764 19.992 0.872545 19.9933 0.883379L19.9963 0.913769C19.9978 0.931735 19.9989 0.949734 19.9995 0.967745L20 1V7C20 7.55228 19.5523 8 19 8C18.4872 8 18.0645 7.61396 18.0067 7.11662L18 7V3.414L13.2071 8.20711C12.8166 8.59763 12.1834 8.59763 11.7929 8.20711C11.4324 7.84662 11.4047 7.27939 11.7097 6.8871L11.7929 6.79289L16.584 2H13C12.4872 2 12.0645 1.61396 12.0067 1.11662L12 1C12 0.487164 12.386 0.0644928 12.8834 0.0067277L13 0H19ZM7 0C7.55228 0 8 0.447715 8 1C8 1.51284 7.61396 1.93551 7.11662 1.99327L7 2H2V7C2 7.51284 1.61396 7.93551 1.11662 7.99327L1 8C0.487164 8 0.0644928 7.61396 0.0067277 7.11662L0 7V1C0 0.487164 0.38604 0.0644928 0.883379 0.0067277L1 0H7Z" fill="white"/>
</svg>
